<svg xmlns="http://www.w3.org/2000/svg" width="1600" height="1600" viewBox="0 0 1600 1600" fill="none"><g clip-path="url(#clip0_1079_379)"><path d="M800.5 320C587.18 320 453.82 426.64 400.5 639.88C480.5 533.24 573.82 493.279 680.5 519.919C741.34 535.159 784.86 579.279 833.02 628.159C911.46 707.759 1002.22 799.839 1200.5 799.839C1413.82 799.839 1547.18 693.199 1600.5 479.919C1520.5 586.559 1427.18 626.559 1320.5 599.919C1259.66 584.719 1216.14 540.561 1167.98 491.721C1089.58 412.121 998.78 320 800.5 320ZM400.5 799.839C187.18 799.839 53.82 906.481 0.5 1119.76C80.5 1013.12 173.82 973.16 280.5 999.8C341.34 1015.04 384.86 1059.16 433.02 1108C511.42 1187.6 602.22 1279.72 800.5 1279.72C1013.86 1279.72 1147.18 1173.08 1200.5 959.8C1120.5 1066.44 1027.18 1106.44 920.5 1079.8C859.66 1064.6 816.14 1020.44 767.98 971.599C689.54 891.999 598.78 799.839 400.5 799.839Z" fill="#06B6D4"></path></g><defs><clipPath id="clip0_1079_379"><rect width="1600" height="1600" fill="white"></rect></clipPath></defs></svg>